<?xml version="1.0" standalone="no"?>
<!DOCTYPE svg PUBLIC "-//W3C//DTD SVG 20010904//EN"
 "http://www.w3.org/TR/2001/REC-SVG-20010904/DTD/svg10.dtd">
<svg version="1.0" xmlns="http://www.w3.org/2000/svg"
 width="300.000000pt" height="300.000000pt" viewBox="0 0 300.000000 300.000000"
 preserveAspectRatio="xMidYMid meet">
<metadata>
Created by potrace 1.11, written by Peter Selinger 2001-2013
</metadata>
<g transform="translate(0.000000,300.000000) scale(0.100000,-0.100000)"
fill="#000000" stroke="none">
<path d="M1378 2994 c-2 -1 -33 -5 -71 -8 -149 -14 -408 -99 -536 -176 -70
-42 -218 -145 -249 -173 -230 -210 -376 -434 -455 -699 -33 -108 -42 -151 -57
-272 -12 -94 -4 -354 14 -431 3 -16 8 -39 10 -50 25 -132 112 -348 189 -470
157 -249 383 -450 640 -569 89 -42 189 -80 238 -90 13 -3 53 -12 89 -21 164
-37 412 -40 588 -6 126 25 332 93 332 110 0 4 -22 15 -49 25 -27 9 -100 46
-162 80 -96 53 -118 62 -141 55 -82 -23 -327 -32 -433 -16 -418 65 -764 323
-941 703 -77 165 -113 332 -112 523 1 106 7 158 34 288 2 12 9 35 15 50 6 16
11 30 11 33 5 45 80 199 144 295 149 226 355 390 601 478 150 54 222 68 388
72 114 3 164 -1 275 -20 169 -30 361 -119 525 -245 27 -21 165 -159 195 -195
105 -127 223 -381 244 -528 4 -27 10 -59 12 -70 3 -12 7 -75 8 -140 5 -200
-32 -371 -118 -552 -43 -89 -147 -253 -175 -275 -3 -3 -14 -15 -24 -26 -17
-21 -16 -24 48 -135 36 -62 68 -115 71 -118 7 -8 71 58 135 139 33 41 64 80
69 87 51 63 143 245 184 367 82 236 103 530 56 766 -6 30 -14 66 -16 79 -9 42
-66 204 -93 261 -120 258 -308 478 -536 629 -179 118 -388 199 -600 231 -68
11 -340 22 -347 14z"/>
<path d="M1822 2510 c-52 -12 -112 -57 -131 -101 -16 -35 -20 -38 -31 -24 -27
32 -122 67 -183 67 -99 0 -220 -76 -321 -202 -16 -19 -51 -61 -80 -94 -224
-255 -308 -452 -308 -716 0 -169 30 -297 104 -446 125 -251 374 -462 660 -560
106 -36 118 -32 61 18 -256 221 -377 422 -427 710 -13 76 -14 251 -2 303 21
91 28 117 46 170 48 135 135 271 263 410 58 63 68 70 103 70 21 0 54 7 72 14
29 12 41 12 92 -3 67 -18 90 -20 90 -7 0 5 -20 36 -45 70 -54 73 -89 156 -71
169 36 29 80 43 119 38 54 -8 81 -27 112 -81 29 -49 33 -51 81 -33 58 21 69
94 24 158 -38 53 -148 87 -228 70z"/>
<path d="M1377 1768 c-85 -144 -118 -256 -123 -418 -10 -350 136 -625 468
-875 168 -127 331 -215 520 -279 128 -44 378 -98 378 -82 0 3 -20 32 -45 65
-25 32 -45 62 -45 65 0 3 -13 24 -29 48 -71 107 -292 527 -419 798 -44 93 -86
156 -148 222 -58 61 -93 89 -226 179 -123 84 -193 152 -263 257 l-43 64 -25
-44z"/>
</g>
</svg>
